<svg width="347" height="52" viewBox="0 0 347 52" fill="none" xmlns="http://www.w3.org/2000/svg">
<path d="M105.02 32.4023C105.02 34.0951 104.596 35.5404 103.75 36.7383C102.917 37.9232 101.745 38.8281 100.234 39.4531C98.724 40.0781 96.9466 40.3906 94.9023 40.3906C93.8216 40.3906 92.7995 40.3385 91.8359 40.2344C90.8724 40.1302 89.987 39.9805 89.1797 39.7852C88.3724 39.5898 87.6628 39.349 87.0508 39.0625V35.8789C88.0273 36.2826 89.2188 36.6602 90.625 37.0117C92.0312 37.3503 93.5026 37.5195 95.0391 37.5195C96.4714 37.5195 97.6823 37.3307 98.6719 36.9531C99.6615 36.5625 100.41 36.0091 100.918 35.293C101.439 34.5638 101.699 33.6914 101.699 32.6758C101.699 31.6992 101.484 30.8854 101.055 30.2344C100.625 29.5703 99.9089 28.9714 98.9062 28.4375C97.9167 27.8906 96.5625 27.3112 94.8438 26.6992C93.6328 26.2695 92.5651 25.8008 91.6406 25.293C90.7161 24.7721 89.9414 24.1862 89.3164 23.5352C88.6914 22.8841 88.2161 22.1289 87.8906 21.2695C87.5781 20.4102 87.4219 19.4271 87.4219 18.3203C87.4219 16.7969 87.806 15.4948 88.5742 14.4141C89.3555 13.3203 90.4297 12.487 91.7969 11.9141C93.1771 11.3281 94.7591 11.0352 96.543 11.0352C98.0664 11.0352 99.4727 11.1784 100.762 11.4648C102.064 11.7513 103.255 12.1354 104.336 12.6172L103.301 15.4688C102.272 15.0391 101.178 14.681 100.02 14.3945C98.8737 14.1081 97.6888 13.9648 96.4648 13.9648C95.2409 13.9648 94.2057 14.1471 93.3594 14.5117C92.526 14.8633 91.888 15.3646 91.4453 16.0156C91.0026 16.6667 90.7812 17.4414 90.7812 18.3398C90.7812 19.3424 90.9896 20.1758 91.4062 20.8398C91.8359 21.5039 92.513 22.0964 93.4375 22.6172C94.375 23.125 95.612 23.6589 97.1484 24.2188C98.8281 24.8307 100.254 25.4818 101.426 26.1719C102.598 26.849 103.49 27.6823 104.102 28.6719C104.714 29.6484 105.02 30.8919 105.02 32.4023ZM127.793 39.9609L123.984 27.5C123.815 26.9661 123.652 26.4453 123.496 25.9375C123.353 25.4167 123.216 24.9219 123.086 24.4531C122.969 23.9714 122.858 23.5286 122.754 23.125C122.663 22.7083 122.585 22.3503 122.52 22.0508H122.383C122.331 22.3503 122.259 22.7083 122.168 23.125C122.077 23.5286 121.966 23.9714 121.836 24.4531C121.719 24.9349 121.589 25.4427 121.445 25.9766C121.302 26.4974 121.139 27.0247 120.957 27.5586L116.973 39.9609H113.32L107.422 18.5547H110.781L113.867 30.3711C114.076 31.1523 114.271 31.9271 114.453 32.6953C114.648 33.4505 114.811 34.1667 114.941 34.8438C115.085 35.5078 115.189 36.0872 115.254 36.582H115.41C115.488 36.2565 115.573 35.8659 115.664 35.4102C115.768 34.9544 115.879 34.4727 115.996 33.9648C116.126 33.444 116.263 32.9297 116.406 32.4219C116.549 31.901 116.693 31.4128 116.836 30.957L120.781 18.5547H124.277L128.086 30.9375C128.281 31.5625 128.47 32.2135 128.652 32.8906C128.848 33.5677 129.023 34.2253 129.18 34.8633C129.336 35.4883 129.447 36.0482 129.512 36.543H129.668C129.72 36.1003 129.818 35.5534 129.961 34.9023C130.104 34.2513 130.267 33.5352 130.449 32.7539C130.645 31.9727 130.846 31.1784 131.055 30.3711L134.18 18.5547H137.48L131.562 39.9609H127.793ZM149.395 18.2422C151.947 18.2422 153.841 18.8151 155.078 19.9609C156.315 21.1068 156.934 22.9362 156.934 25.4492V40H154.57L153.945 36.8359H153.789C153.19 37.6172 152.565 38.2747 151.914 38.8086C151.263 39.3294 150.508 39.7266 149.648 40C148.802 40.2604 147.76 40.3906 146.523 40.3906C145.221 40.3906 144.062 40.1628 143.047 39.707C142.044 39.2513 141.25 38.5612 140.664 37.6367C140.091 36.7122 139.805 35.5404 139.805 34.1211C139.805 31.9857 140.651 30.3451 142.344 29.1992C144.036 28.0534 146.615 27.4284 150.078 27.3242L153.77 27.168V25.8594C153.77 24.0104 153.372 22.7148 152.578 21.9727C151.784 21.2305 150.664 20.8594 149.219 20.8594C148.099 20.8594 147.031 21.0221 146.016 21.3477C145 21.6732 144.036 22.0573 143.125 22.5L142.129 20.0391C143.092 19.5443 144.199 19.1211 145.449 18.7695C146.699 18.418 148.014 18.2422 149.395 18.2422ZM153.73 29.4531L150.469 29.5898C147.799 29.694 145.918 30.1302 144.824 30.8984C143.73 31.6667 143.184 32.7539 143.184 34.1602C143.184 35.3841 143.555 36.2891 144.297 36.875C145.039 37.4609 146.022 37.7539 147.246 37.7539C149.147 37.7539 150.703 37.2266 151.914 36.1719C153.125 35.1172 153.73 33.5352 153.73 31.4258V29.4531ZM169.59 49.6094C166.777 49.6094 164.609 49.082 163.086 48.0273C161.562 46.9857 160.801 45.5208 160.801 43.6328C160.801 42.2917 161.224 41.1458 162.07 40.1953C162.93 39.2448 164.115 38.6133 165.625 38.3008C165.065 38.0404 164.583 37.6497 164.18 37.1289C163.789 36.6081 163.594 36.0091 163.594 35.332C163.594 34.5508 163.809 33.8672 164.238 33.2812C164.681 32.6823 165.352 32.1094 166.25 31.5625C165.13 31.1068 164.219 30.3385 163.516 29.2578C162.826 28.1641 162.48 26.8945 162.48 25.4492C162.48 23.9128 162.799 22.6042 163.438 21.5234C164.076 20.4297 165 19.5964 166.211 19.0234C167.422 18.4505 168.887 18.1641 170.605 18.1641C170.983 18.1641 171.361 18.1836 171.738 18.2227C172.129 18.2487 172.5 18.2943 172.852 18.3594C173.203 18.4115 173.509 18.4766 173.77 18.5547H181.113V20.6445L177.168 21.1328C177.559 21.6406 177.884 22.2526 178.145 22.9688C178.405 23.6849 178.535 24.4792 178.535 25.3516C178.535 27.487 177.812 29.1862 176.367 30.4492C174.922 31.6992 172.936 32.3242 170.41 32.3242C169.811 32.3242 169.199 32.2721 168.574 32.168C167.936 32.5195 167.448 32.9102 167.109 33.3398C166.784 33.7695 166.621 34.2643 166.621 34.8242C166.621 35.2409 166.745 35.5729 166.992 35.8203C167.253 36.0677 167.624 36.25 168.105 36.3672C168.587 36.4714 169.167 36.5234 169.844 36.5234H173.613C175.944 36.5234 177.728 37.0117 178.965 37.9883C180.215 38.9648 180.84 40.3906 180.84 42.2656C180.84 44.6354 179.876 46.4518 177.949 47.7148C176.022 48.9779 173.236 49.6094 169.59 49.6094ZM169.688 47.0703C171.458 47.0703 172.923 46.888 174.082 46.5234C175.254 46.1719 176.126 45.6576 176.699 44.9805C177.285 44.3164 177.578 43.5221 177.578 42.5977C177.578 41.7383 177.383 41.0872 176.992 40.6445C176.602 40.2148 176.029 39.9284 175.273 39.7852C174.518 39.6289 173.594 39.5508 172.5 39.5508H168.789C167.826 39.5508 166.986 39.7005 166.27 40C165.553 40.2995 165 40.7422 164.609 41.3281C164.232 41.9141 164.043 42.6432 164.043 43.5156C164.043 44.6745 164.531 45.5534 165.508 46.1523C166.484 46.7643 167.878 47.0703 169.688 47.0703ZM170.527 29.9609C172.077 29.9609 173.242 29.5703 174.023 28.7891C174.805 28.0078 175.195 26.8685 175.195 25.3711C175.195 23.7695 174.798 22.5716 174.004 21.7773C173.21 20.9701 172.038 20.5664 170.488 20.5664C169.004 20.5664 167.858 20.9831 167.051 21.8164C166.257 22.6367 165.859 23.8411 165.859 25.4297C165.859 26.888 166.263 28.0078 167.07 28.7891C167.878 29.5703 169.03 29.9609 170.527 29.9609ZM191.309 49.6094C188.496 49.6094 186.328 49.082 184.805 48.0273C183.281 46.9857 182.52 45.5208 182.52 43.6328C182.52 42.2917 182.943 41.1458 183.789 40.1953C184.648 39.2448 185.833 38.6133 187.344 38.3008C186.784 38.0404 186.302 37.6497 185.898 37.1289C185.508 36.6081 185.312 36.0091 185.312 35.332C185.312 34.5508 185.527 33.8672 185.957 33.2812C186.4 32.6823 187.07 32.1094 187.969 31.5625C186.849 31.1068 185.938 30.3385 185.234 29.2578C184.544 28.1641 184.199 26.8945 184.199 25.4492C184.199 23.9128 184.518 22.6042 185.156 21.5234C185.794 20.4297 186.719 19.5964 187.93 19.0234C189.141 18.4505 190.605 18.1641 192.324 18.1641C192.702 18.1641 193.079 18.1836 193.457 18.2227C193.848 18.2487 194.219 18.2943 194.57 18.3594C194.922 18.4115 195.228 18.4766 195.488 18.5547H202.832V20.6445L198.887 21.1328C199.277 21.6406 199.603 22.2526 199.863 22.9688C200.124 23.6849 200.254 24.4792 200.254 25.3516C200.254 27.487 199.531 29.1862 198.086 30.4492C196.641 31.6992 194.655 32.3242 192.129 32.3242C191.53 32.3242 190.918 32.2721 190.293 32.168C189.655 32.5195 189.167 32.9102 188.828 33.3398C188.503 33.7695 188.34 34.2643 188.34 34.8242C188.34 35.2409 188.464 35.5729 188.711 35.8203C188.971 36.0677 189.342 36.25 189.824 36.3672C190.306 36.4714 190.885 36.5234 191.562 36.5234H195.332C197.663 36.5234 199.447 37.0117 200.684 37.9883C201.934 38.9648 202.559 40.3906 202.559 42.2656C202.559 44.6354 201.595 46.4518 199.668 47.7148C197.741 48.9779 194.954 49.6094 191.309 49.6094ZM191.406 47.0703C193.177 47.0703 194.642 46.888 195.801 46.5234C196.973 46.1719 197.845 45.6576 198.418 44.9805C199.004 44.3164 199.297 43.5221 199.297 42.5977C199.297 41.7383 199.102 41.0872 198.711 40.6445C198.32 40.2148 197.747 39.9284 196.992 39.7852C196.237 39.6289 195.312 39.5508 194.219 39.5508H190.508C189.544 39.5508 188.704 39.7005 187.988 40C187.272 40.2995 186.719 40.7422 186.328 41.3281C185.951 41.9141 185.762 42.6432 185.762 43.5156C185.762 44.6745 186.25 45.5534 187.227 46.1523C188.203 46.7643 189.596 47.0703 191.406 47.0703ZM192.246 29.9609C193.796 29.9609 194.961 29.5703 195.742 28.7891C196.523 28.0078 196.914 26.8685 196.914 25.3711C196.914 23.7695 196.517 22.5716 195.723 21.7773C194.928 20.9701 193.757 20.5664 192.207 20.5664C190.723 20.5664 189.577 20.9831 188.77 21.8164C187.975 22.6367 187.578 23.8411 187.578 25.4297C187.578 26.888 187.982 28.0078 188.789 28.7891C189.596 29.5703 190.749 29.9609 192.246 29.9609ZM215.293 18.2031C217.116 18.2031 218.678 18.6068 219.98 19.4141C221.283 20.2214 222.279 21.3542 222.969 22.8125C223.659 24.2578 224.004 25.9505 224.004 27.8906V29.9023H209.219C209.258 32.4154 209.883 34.3294 211.094 35.6445C212.305 36.9596 214.01 37.6172 216.211 37.6172C217.565 37.6172 218.763 37.4935 219.805 37.2461C220.846 36.9987 221.927 36.6341 223.047 36.1523V39.0039C221.966 39.4857 220.892 39.8372 219.824 40.0586C218.77 40.2799 217.52 40.3906 216.074 40.3906C214.017 40.3906 212.22 39.974 210.684 39.1406C209.16 38.2943 207.975 37.0573 207.129 35.4297C206.283 33.8021 205.859 31.8099 205.859 29.4531C205.859 27.1484 206.243 25.1562 207.012 23.4766C207.793 21.7839 208.887 20.4818 210.293 19.5703C211.712 18.6589 213.379 18.2031 215.293 18.2031ZM215.254 20.8594C213.522 20.8594 212.142 21.4258 211.113 22.5586C210.085 23.6914 209.473 25.2734 209.277 27.3047H220.605C220.592 26.0286 220.391 24.9089 220 23.9453C219.622 22.9688 219.043 22.2135 218.262 21.6797C217.48 21.1328 216.478 20.8594 215.254 20.8594ZM239.238 18.2031C239.668 18.2031 240.117 18.2292 240.586 18.2812C241.055 18.3203 241.471 18.3789 241.836 18.457L241.426 21.4648C241.074 21.3737 240.684 21.3021 240.254 21.25C239.824 21.1979 239.421 21.1719 239.043 21.1719C238.184 21.1719 237.37 21.3477 236.602 21.6992C235.846 22.0378 235.182 22.5326 234.609 23.1836C234.036 23.8216 233.587 24.5964 233.262 25.5078C232.936 26.4062 232.773 27.4089 232.773 28.5156V40H229.512V18.5938H232.207L232.559 22.5391H232.695C233.138 21.7448 233.672 21.0221 234.297 20.3711C234.922 19.707 235.645 19.1797 236.465 18.7891C237.298 18.3984 238.223 18.2031 239.238 18.2031ZM260.078 40H256.758V11.4453H272.656V14.375H260.078V24.8438H271.895V27.7539H260.078V40ZM280.176 18.5938V40H276.934V18.5938H280.176ZM278.594 10.5859C279.128 10.5859 279.583 10.7617 279.961 11.1133C280.352 11.4518 280.547 11.9857 280.547 12.7148C280.547 13.431 280.352 13.9648 279.961 14.3164C279.583 14.668 279.128 14.8438 278.594 14.8438C278.034 14.8438 277.565 14.668 277.188 14.3164C276.823 13.9648 276.641 13.431 276.641 12.7148C276.641 11.9857 276.823 11.4518 277.188 11.1133C277.565 10.7617 278.034 10.5859 278.594 10.5859ZM290.312 40H287.051V9.60938H290.312V40ZM304.082 37.7344C304.616 37.7344 305.163 37.6888 305.723 37.5977C306.283 37.5065 306.738 37.3958 307.09 37.2656V39.7852C306.712 39.9544 306.185 40.0977 305.508 40.2148C304.844 40.332 304.193 40.3906 303.555 40.3906C302.422 40.3906 301.393 40.1953 300.469 39.8047C299.544 39.401 298.802 38.724 298.242 37.7734C297.695 36.8229 297.422 35.5078 297.422 33.8281V21.1328H294.375V19.5508L297.441 18.2812L298.73 13.6328H300.684V18.5938H306.953V21.1328H300.684V33.7305C300.684 35.0716 300.99 36.0742 301.602 36.7383C302.227 37.4023 303.053 37.7344 304.082 37.7344ZM319.668 18.2031C321.491 18.2031 323.053 18.6068 324.355 19.4141C325.658 20.2214 326.654 21.3542 327.344 22.8125C328.034 24.2578 328.379 25.9505 328.379 27.8906V29.9023H313.594C313.633 32.4154 314.258 34.3294 315.469 35.6445C316.68 36.9596 318.385 37.6172 320.586 37.6172C321.94 37.6172 323.138 37.4935 324.18 37.2461C325.221 36.9987 326.302 36.6341 327.422 36.1523V39.0039C326.341 39.4857 325.267 39.8372 324.199 40.0586C323.145 40.2799 321.895 40.3906 320.449 40.3906C318.392 40.3906 316.595 39.974 315.059 39.1406C313.535 38.2943 312.35 37.0573 311.504 35.4297C310.658 33.8021 310.234 31.8099 310.234 29.4531C310.234 27.1484 310.618 25.1562 311.387 23.4766C312.168 21.7839 313.262 20.4818 314.668 19.5703C316.087 18.6589 317.754 18.2031 319.668 18.2031ZM319.629 20.8594C317.897 20.8594 316.517 21.4258 315.488 22.5586C314.46 23.6914 313.848 25.2734 313.652 27.3047H324.98C324.967 26.0286 324.766 24.9089 324.375 23.9453C323.997 22.9688 323.418 22.2135 322.637 21.6797C321.855 21.1328 320.853 20.8594 319.629 20.8594ZM343.613 18.2031C344.043 18.2031 344.492 18.2292 344.961 18.2812C345.43 18.3203 345.846 18.3789 346.211 18.457L345.801 21.4648C345.449 21.3737 345.059 21.3021 344.629 21.25C344.199 21.1979 343.796 21.1719 343.418 21.1719C342.559 21.1719 341.745 21.3477 340.977 21.6992C340.221 22.0378 339.557 22.5326 338.984 23.1836C338.411 23.8216 337.962 24.5964 337.637 25.5078C337.311 26.4062 337.148 27.4089 337.148 28.5156V40H333.887V18.5938H336.582L336.934 22.5391H337.07C337.513 21.7448 338.047 21.0221 338.672 20.3711C339.297 19.707 340.02 19.1797 340.84 18.7891C341.673 18.3984 342.598 18.2031 343.613 18.2031Z" fill="#3C4148"/>
<path d="M16.3848 2.0051C15.8329 1.99422 15.2809 2.00074 14.7295 2.02467C10.8829 2.24382 8.5741 4.04786 7.94017 7.7851C7.49016 10.3875 7.56451 13.0603 7.38059 15.6783C7.32972 17.048 7.18493 18.4059 6.93058 19.7403C6.40621 22.1236 5.37705 22.8632 2.95481 22.9884C2.63415 23.0283 2.31554 23.0831 2 23.1528V28.878C6.40621 29.0932 7.00101 30.6468 7.36102 35.2528C7.49016 36.9316 7.31015 38.6104 7.41972 40.2893C7.49016 41.8781 7.70538 43.4512 8.03017 44.9853C9.04368 49.1921 13.1447 50.6009 18.1065 49.7517V44.7309C17.3122 44.7309 16.6078 44.7505 15.923 44.7309C14.2404 44.68 13.6103 44.2613 13.4499 42.6373C13.2308 40.5436 13.2855 38.4109 13.1564 36.2977C12.906 32.3804 12.4716 28.518 8.64454 26.0252C10.6129 24.5772 12.0412 22.8475 12.4912 20.5543C12.816 18.9498 13.0155 17.3415 13.1408 15.7135C13.2503 14.0895 13.0508 12.4263 13.1955 10.8219C13.4303 8.21948 13.5947 7.15505 16.7174 7.26071C17.187 7.26071 17.637 7.19419 18.1613 7.15505V2.02858C17.5352 2.02858 16.9483 2.01293 16.3848 2.0051ZM60.9262 2.04032C59.8606 2.01639 58.7952 2.09502 57.7447 2.27512V7.26071C58.7035 7.26071 59.4431 7.26071 60.1826 7.28028C61.4662 7.29593 62.4405 7.78901 62.5697 9.21347C62.6949 10.5127 62.691 11.8315 62.8201 13.1503C63.0745 15.7683 63.2153 18.4215 63.6693 21.0043C64.0684 23.1332 65.528 24.722 67.3515 26.0252C64.1545 28.1736 63.2153 31.2416 63.0549 34.6932C62.9649 37.0569 62.9101 39.4401 62.7849 41.8233C62.6753 43.9913 61.9162 44.6957 59.7326 44.7505C59.1183 44.7661 58.5196 44.8209 57.8387 44.86V49.967C59.1183 49.967 60.2922 50.0413 61.4662 49.967C65.1132 49.7517 67.3163 47.9829 68.0403 44.4413C68.3455 42.4925 68.5255 40.528 68.5803 38.5557C68.7055 36.7516 68.6899 34.928 68.8699 33.1396C69.1399 30.3416 70.4234 29.1871 73.2213 29.0032C73.4865 28.9707 73.7475 28.9104 74 28.8232V23.098C73.5304 23.0432 73.2017 22.9923 72.8613 22.9728C70.7638 22.8828 69.7151 22.1783 69.1946 20.1943C68.8701 18.9215 68.6709 17.62 68.5998 16.3083C68.4551 13.8899 68.4707 11.4519 68.3103 9.02954C67.9972 4.36484 65.2032 2.16946 60.9262 2.04032Z" fill="#49A32B"/>
<path d="M49.0395 19.4877L49.0863 19.5332C49.1956 19.6478 49.3483 19.7139 49.5089 19.7161C50.4045 19.7359 51.2951 19.8511 52.1649 20.0597C53.3842 20.3189 54.5676 20.7182 55.6901 21.2494C56.195 21.5334 56.8303 21.4689 57.2642 21.0896C57.7136 20.7599 57.8695 20.1717 57.6401 19.6715C55.3878 13.0553 49.6977 8.09987 42.6933 6.65452C37.7376 5.57301 32.5443 6.39226 28.193 8.94198C21.5888 12.6897 17.7108 19.7344 18.1627 27.163C18.6146 34.5915 23.3195 41.1415 30.3319 44.1042C30.0266 43.9213 29.6507 43.6696 29.1804 43.326C22.3142 38.1767 21.0214 28.5903 26.2897 21.8902C27.151 20.8001 28.1542 19.8236 29.274 18.9851C30.6315 17.9773 32.1472 17.1892 33.7627 16.6513C35.393 16.1243 37.0974 15.8464 38.8152 15.8275C39.9126 15.8348 41.0064 15.9499 42.0801 16.1711C44.6548 16.674 47.0522 17.8165 49.0395 19.4877V19.4877Z" fill="#45AAF4"/>
<path d="M30.7726 40.7602C31.8808 43.0297 33.8982 44.7479 36.3452 45.5064C37.5831 45.9145 38.8925 46.0721 40.1942 45.9697C37.4862 43.941 36.6431 40.3053 38.1903 37.3282C39.7376 34.3511 43.2334 32.8827 46.4992 33.8382C46.9783 34.0121 47.5164 33.8396 47.7982 33.4218C48.1277 33.0455 48.1752 32.5049 47.9161 32.0788C46.5417 29.5209 44.0411 27.7272 41.1385 27.217C38.8462 26.7688 36.4659 27.1907 34.4788 28.3975C30.0879 30.8974 28.4597 36.3286 30.7726 40.7602V40.7602Z" fill="#097FD5"/>
<path d="M43.8499 27.0851C45.5416 26.598 47.331 26.5346 49.0541 26.9006C49.7548 27.0576 50.4402 27.2737 51.1027 27.5466C51.5736 27.7898 52.1522 27.6956 52.5174 27.3163C52.9104 26.946 53.0236 26.3739 52.8003 25.8866C51.8968 23.6505 50.4403 21.6693 48.5616 20.121C46.684 18.5612 44.4444 17.4762 42.0391 16.961C38.2732 16.1341 34.326 16.806 31.0657 18.8289C26.1772 21.7601 23.4314 27.1717 23.9984 32.7581C24.5653 38.3445 28.3451 43.1209 33.7271 45.0522C33.4654 44.8819 33.2139 44.6972 32.9738 44.4988C30.8092 42.8271 29.4116 40.3814 29.0886 37.7002C28.7655 35.0189 29.5436 32.3218 31.2514 30.2025C31.852 29.4464 32.5677 28.7851 33.3734 28.242C35.136 26.9814 37.2661 26.31 39.4485 26.3273C40.0806 26.3164 40.7121 26.3704 41.3327 26.4884C42.0451 26.6282 42.7457 26.821 43.4282 27.0651C43.5599 27.1287 43.7126 27.1359 43.8499 27.0851V27.0851Z" fill="#1794EF"/>
</svg>
